<svg xmlns="http://www.w3.org/2000/svg" viewBox="0 0 100 100" width="100" height="100">
  <defs>
    <linearGradient id="hatGradient" x1="0%" y1="0%" x2="100%" y2="100%">
      <stop offset="0%" stop-color="#3a3276" />
      <stop offset="100%" stop-color="#0c0a20" />
    </linearGradient>
    <linearGradient id="starGradient" x1="0%" y1="0%" x2="100%" y2="100%">
      <stop offset="0%" stop-color="#e6c200" />
      <stop offset="100%" stop-color="#ffd700" />
    </linearGradient>
    <filter id="glow" x="-30%" y="-30%" width="160%" height="160%">
      <feGaussianBlur in="SourceGraphic" stdDeviation="2" result="blur" />
      <feColorMatrix in="blur" mode="matrix" values="1 0 0 0 0  0 1 0 0 0  0 0 1 0 0  0 0 0 15 -6" result="glow" />
      <feBlend in="SourceGraphic" in2="glow" mode="screen" />
    </filter>
  </defs>
  
  <!-- Hat brim -->
  <ellipse cx="50" cy="75" rx="40" ry="10" fill="#1a1745" />
  
  <!-- Hat cone -->
  <path d="M20,75 Q50,-5 80,75" fill="url(#hatGradient)" stroke="#3a3276" stroke-width="1" />
  
  <!-- Hat band -->
  <path d="M24,65 Q50,60 76,65" stroke="#8c52ff" stroke-width="3" fill="none" />
  
  <!-- Stars on hat (with glow effect) -->
  <g filter="url(#glow)">
    <!-- Star 1 -->
    <path d="M40,40 L43,47 L50,48 L45,53 L46,60 L40,57 L34,60 L35,53 L30,48 L37,47 Z" 
          fill="url(#starGradient)" 
          opacity="0.8" 
          transform="scale(0.5) translate(40, 20)" />
    
    <!-- Star 2 -->
    <path d="M40,40 L43,47 L50,48 L45,53 L46,60 L40,57 L34,60 L35,53 L30,48 L37,47 Z" 
          fill="url(#starGradient)" 
          opacity="0.9" 
          transform="scale(0.4) translate(130, 70)" />
    
    <!-- Moon -->
    <path d="M50,25 a8,8 0 1,1 0,16 a5,5 0 1,1 0,-16" 
          fill="url(#starGradient)" 
          opacity="0.9" 
          transform="scale(0.6) translate(40, -15)" />
  </g>
  
  <!-- Sparkles -->
  <circle cx="55" cy="35" r="1" fill="#ffffff" opacity="0.9" />
  <circle cx="62" cy="48" r="0.8" fill="#ffffff" opacity="0.7" />
  <circle cx="37" cy="55" r="1.2" fill="#ffffff" opacity="0.8" />
  
  <!-- Magical swirl -->
  <path d="M35,20 C40,25 60,30 65,25 S55,15 50,20 S35,15 35,20 Z" 
        fill="none" 
        stroke="#8c52ff" 
        stroke-width="0.5" 
        opacity="0.4" />
</svg>
